# Blender 4.4.3
# www.blender.org
mtllib mall_greybox.mtl
g Bathrooms_Mesh
v -32.660576 -1.000000 2.945225
v -32.660576 1.000000 2.945225
v -32.660576 -1.000000 0.945225
v -32.660576 1.000000 0.945225
v -30.660576 -1.000000 2.945225
v -30.660576 1.000000 2.945225
v -30.660576 -1.000000 0.945225
v -30.660576 1.000000 0.945225
vn -1.0000 -0.0000 -0.0000
vn -0.0000 -0.0000 -1.0000
vn 1.0000 -0.0000 -0.0000
vn -0.0000 -0.0000 1.0000
vn -0.0000 -1.0000 -0.0000
vn -0.0000 1.0000 -0.0000
vt 0.625000 0.000000
vt 0.375000 0.250000
vt 0.375000 0.000000
vt 0.625000 0.250000
vt 0.375000 0.500000
vt 0.625000 0.500000
vt 0.375000 0.750000
vt 0.625000 0.750000
vt 0.375000 1.000000
vt 0.125000 0.750000
vt 0.125000 0.500000
vt 0.875000 0.500000
vt 0.625000 1.000000
vt 0.875000 0.750000
s 0
g off
f 2/1/1 3/2/1 1/3/1
f 4/4/2 7/5/2 3/2/2
f 8/6/3 5/7/3 7/5/3
f 6/8/4 1/9/4 5/7/4
f 7/5/5 1/10/5 3/11/5
f 4/12/6 6/8/6 8/6/6
f 2/1/1 4/4/1 3/2/1
f 4/4/2 8/6/2 7/5/2
f 8/6/3 6/8/3 5/7/3
f 6/8/4 2/13/4 1/9/4
f 7/5/5 5/7/5 1/10/5
f 4/12/6 2/14/6 6/8/6
g Employee_Exit_Mesh
v 51.993275 -1.000000 1.000000
v 51.993275 1.000000 1.000000
v 51.993275 -1.000000 -1.000000
v 51.993275 1.000000 -1.000000
v 53.993275 -1.000000 1.000000
v 53.993275 1.000000 1.000000
v 53.993275 -1.000000 -1.000000
v 53.993275 1.000000 -1.000000
vn -1.0000 -0.0000 -0.0000
vn -0.0000 -0.0000 -1.0000
vn 1.0000 -0.0000 -0.0000
vn -0.0000 -0.0000 1.0000
vn -0.0000 -1.0000 -0.0000
vn -0.0000 1.0000 -0.0000
vt 0.625000 0.000000
vt 0.375000 0.250000
vt 0.375000 0.000000
vt 0.625000 0.250000
vt 0.375000 0.500000
vt 0.625000 0.500000
vt 0.375000 0.750000
vt 0.625000 0.750000
vt 0.375000 1.000000
vt 0.125000 0.750000
vt 0.125000 0.500000
vt 0.875000 0.500000
vt 0.625000 1.000000
vt 0.875000 0.750000
s 0
g off
f 10/15/7 11/16/7 9/17/7
f 12/18/8 15/19/8 11/16/8
f 16/20/9 13/21/9 15/19/9
f 14/22/10 9/23/10 13/21/10
f 15/19/11 9/24/11 11/25/11
f 12/26/12 14/22/12 16/20/12
f 10/15/7 12/18/7 11/16/7
f 12/18/8 16/20/8 15/19/8
f 16/20/9 14/22/9 13/21/9
f 14/22/10 10/27/10 9/23/10
f 15/19/11 13/21/11 9/24/11
f 12/26/12 10/28/12 14/22/12
g Garbage_Mesh
v 75.077873 0.098049 12.206511
v 75.077873 2.098049 12.206511
v 75.077873 0.098049 10.206511
v 75.077873 2.098049 10.206511
v 77.077873 0.098049 12.206511
v 77.077873 2.098049 12.206511
v 77.077873 0.098049 10.206511
v 77.077873 2.098049 10.206511
vn -1.0000 -0.0000 -0.0000
vn -0.0000 -0.0000 -1.0000
vn 1.0000 -0.0000 -0.0000
vn -0.0000 -0.0000 1.0000
vn -0.0000 -1.0000 -0.0000
vn -0.0000 1.0000 -0.0000
vt 0.625000 0.000000
vt 0.375000 0.250000
vt 0.375000 0.000000
vt 0.625000 0.250000
vt 0.375000 0.500000
vt 0.625000 0.500000
vt 0.375000 0.750000
vt 0.625000 0.750000
vt 0.375000 1.000000
vt 0.125000 0.750000
vt 0.125000 0.500000
vt 0.875000 0.500000
vt 0.625000 1.000000
vt 0.875000 0.750000
s 0
g off
f 18/29/13 19/30/13 17/31/13
f 20/32/14 23/33/14 19/30/14
f 24/34/15 21/35/15 23/33/15
f 22/36/16 17/37/16 21/35/16
f 23/33/17 17/38/17 19/39/17
f 20/40/18 22/36/18 24/34/18
f 18/29/13 20/32/13 19/30/13
f 20/32/14 24/34/14 23/33/14
f 24/34/15 22/36/15 21/35/15
f 22/36/16 18/41/16 17/37/16
f 23/33/17 21/35/17 17/38/17
f 20/40/18 18/42/18 22/36/18
g Janitors_Door_Mesh
v 30.507996 -1.000000 5.350776
v 30.507996 1.000000 5.350776
v 30.507996 -1.000000 3.350776
v 30.507996 1.000000 3.350776
v 32.507996 -1.000000 5.350776
v 32.507996 1.000000 5.350776
v 32.507996 -1.000000 3.350776
v 32.507996 1.000000 3.350776
vn -1.0000 -0.0000 -0.0000
vn -0.0000 -0.0000 -1.0000
vn 1.0000 -0.0000 -0.0000
vn -0.0000 -0.0000 1.0000
vn -0.0000 -1.0000 -0.0000
vn -0.0000 1.0000 -0.0000
vt 0.625000 0.000000
vt 0.375000 0.250000
vt 0.375000 0.000000
vt 0.625000 0.250000
vt 0.375000 0.500000
vt 0.625000 0.500000
vt 0.375000 0.750000
vt 0.625000 0.750000
vt 0.375000 1.000000
vt 0.125000 0.750000
vt 0.125000 0.500000
vt 0.875000 0.500000
vt 0.625000 1.000000
vt 0.875000 0.750000
s 0
g off
f 26/43/19 27/44/19 25/45/19
f 28/46/20 31/47/20 27/44/20
f 32/48/21 29/49/21 31/47/21
f 30/50/22 25/51/22 29/49/22
f 31/47/23 25/52/23 27/53/23
f 28/54/24 30/50/24 32/48/24
f 26/43/19 28/46/19 27/44/19
f 28/46/20 32/48/20 31/47/20
f 32/48/21 30/50/21 29/49/21
f 30/50/22 26/55/22 25/51/22
f 31/47/23 29/49/23 25/52/23
f 28/54/24 26/56/24 30/50/24
g Main_Exit_Mesh
v -0.984783 -1.000000 21.186274
v -0.984783 1.000000 21.186274
v -0.984783 -1.000000 19.186274
v -0.984783 1.000000 19.186274
v 1.015217 -1.000000 21.186274
v 1.015217 1.000000 21.186274
v 1.015217 -1.000000 19.186274
v 1.015217 1.000000 19.186274
vn -1.0000 -0.0000 -0.0000
vn -0.0000 -0.0000 -1.0000
vn 1.0000 -0.0000 -0.0000
vn -0.0000 -0.0000 1.0000
vn -0.0000 -1.0000 -0.0000
vn -0.0000 1.0000 -0.0000
vt 0.625000 0.000000
vt 0.375000 0.250000
vt 0.375000 0.000000
vt 0.625000 0.250000
vt 0.375000 0.500000
vt 0.625000 0.500000
vt 0.375000 0.750000
vt 0.625000 0.750000
vt 0.375000 1.000000
vt 0.125000 0.750000
vt 0.125000 0.500000
vt 0.875000 0.500000
vt 0.625000 1.000000
vt 0.875000 0.750000
s 0
g off
f 34/57/25 35/58/25 33/59/25
f 36/60/26 39/61/26 35/58/26
f 40/62/27 37/63/27 39/61/27
f 38/64/28 33/65/28 37/63/28
f 39/61/29 33/66/29 35/67/29
f 36/68/30 38/64/30 40/62/30
f 34/57/25 36/60/25 35/58/25
f 36/60/26 40/62/26 39/61/26
f 40/62/27 38/64/27 37/63/27
f 38/64/28 34/69/28 33/65/28
f 39/61/29 37/63/29 33/66/29
f 36/68/30 34/70/30 38/64/30
g Resting_Area_Mesh
v -38.459652 0.031373 -11.653032
v -38.459652 2.031373 -11.653032
v -38.459652 0.031373 -13.653032
v -38.459652 2.031373 -13.653032
v -36.459652 0.031373 -11.653032
v -36.459652 2.031373 -11.653032
v -36.459652 0.031373 -13.653032
v -36.459652 2.031373 -13.653032
vn -1.0000 -0.0000 -0.0000
vn -0.0000 -0.0000 -1.0000
vn 1.0000 -0.0000 -0.0000
vn -0.0000 -0.0000 1.0000
vn -0.0000 -1.0000 -0.0000
vn -0.0000 1.0000 -0.0000
vt 0.625000 0.000000
vt 0.375000 0.250000
vt 0.375000 0.000000
vt 0.625000 0.250000
vt 0.375000 0.500000
vt 0.625000 0.500000
vt 0.375000 0.750000
vt 0.625000 0.750000
vt 0.375000 1.000000
vt 0.125000 0.750000
vt 0.125000 0.500000
vt 0.875000 0.500000
vt 0.625000 1.000000
vt 0.875000 0.750000
s 0
g off
f 42/71/31 43/72/31 41/73/31
f 44/74/32 47/75/32 43/72/32
f 48/76/33 45/77/33 47/75/33
f 46/78/34 41/79/34 45/77/34
f 47/75/35 41/80/35 43/81/35
f 44/82/36 46/78/36 48/76/36
f 42/71/31 44/74/31 43/72/31
f 44/74/32 48/76/32 47/75/32
f 48/76/33 46/78/33 45/77/33
f 46/78/34 42/83/34 41/79/34
f 47/75/35 45/77/35 41/80/35
f 44/82/36 42/84/36 46/78/36
g Stairs/EscalatorBtm_Mesh
v -0.984783 -1.000000 -18.250029
v -0.984783 1.000000 -18.250029
v -0.984783 -1.000000 -20.250029
v -0.984783 1.000000 -20.250029
v 1.015217 -1.000000 -18.250029
v 1.015217 1.000000 -18.250029
v 1.015217 -1.000000 -20.250029
v 1.015217 1.000000 -20.250029
vn -1.0000 -0.0000 -0.0000
vn -0.0000 -0.0000 -1.0000
vn 1.0000 -0.0000 -0.0000
vn -0.0000 -0.0000 1.0000
vn -0.0000 -1.0000 -0.0000
vn -0.0000 1.0000 -0.0000
vt 0.625000 0.000000
vt 0.375000 0.250000
vt 0.375000 0.000000
vt 0.625000 0.250000
vt 0.375000 0.500000
vt 0.625000 0.500000
vt 0.375000 0.750000
vt 0.625000 0.750000
vt 0.375000 1.000000
vt 0.125000 0.750000
vt 0.125000 0.500000
vt 0.875000 0.500000
vt 0.625000 1.000000
vt 0.875000 0.750000
s 0
g off
f 50/85/37 51/86/37 49/87/37
f 52/88/38 55/89/38 51/86/38
f 56/90/39 53/91/39 55/89/39
f 54/92/40 49/93/40 53/91/40
f 55/89/41 49/94/41 51/95/41
f 52/96/42 54/92/42 56/90/42
f 50/85/37 52/88/37 51/86/37
f 52/88/38 56/90/38 55/89/38
f 56/90/39 54/92/39 53/91/39
f 54/92/40 50/97/40 49/93/40
f 55/89/41 53/91/41 49/94/41
f 52/96/42 50/98/42 54/92/42
g Rest_+_Bathroom_Mesh
v -11.328314 0.074364 -2.824441
v -11.328314 4.553715 -2.824441
v -29.851347 0.074364 -2.824440
v -29.851347 4.553716 -2.824440
v -20.589830 0.074364 -2.824442
v -20.589830 4.553715 -2.824442
v -29.851347 0.074364 -21.850155
v -29.851347 4.553715 -21.850155
v -48.497417 0.074364 -21.850155
v -48.497417 4.553715 -21.850155
v -48.497414 0.074364 11.593420
v -48.497414 4.553716 11.593420
v -70.074287 0.074364 11.593422
v -70.074287 4.553716 11.593422
v -70.074287 0.074364 30.261379
v -70.074287 4.553716 30.261379
v -44.369862 0.074364 30.261379
v -44.369862 4.553716 30.261379
v -44.369865 0.074364 2.567176
v -44.369865 4.553716 2.567176
v -33.392666 0.074364 2.567176
v -33.392666 4.553716 2.567176
v -33.392666 0.074364 12.512224
v -33.392666 4.553716 12.512224
v -34.551411 0.074364 12.512224
v -34.551411 4.553716 12.512224
v -34.551411 0.074364 2.755279
v -34.551411 4.553715 2.755279
v -44.133648 0.074364 2.755280
v -44.133648 4.553716 2.755280
v -44.133644 0.074364 30.357597
v -44.133644 4.553715 30.357597
v -29.764353 0.074364 30.357597
v -29.764353 4.553716 30.357597
v -29.764355 0.074364 2.832742
v -29.764355 4.553715 2.832742
v -11.340113 0.074364 2.832740
v -11.340113 4.553715 2.832740
vn -0.0000 -0.0000 -1.0000
vn 1.0000 -0.0000 -0.0000
vn -1.0000 -0.0000 -0.0000
vn -0.0000 -0.0000 1.0000
vt 0.000000 0.000000
vt 0.000000 1.000000
s 0
g off
f 59/99/43 62/100/43 61/99/43
f 57/99/43 62/100/43 58/100/43
f 59/99/44 64/100/44 60/100/44
f 63/99/43 66/100/43 64/100/43
f 65/99/45 68/100/45 66/100/45
f 67/99/43 70/100/43 68/100/43
f 69/99/45 72/100/45 70/100/45
f 71/99/46 74/100/46 72/100/46
f 73/99/44 76/100/44 74/100/44
f 75/99/46 78/100/46 76/100/46
f 77/99/45 80/100/45 78/100/45
f 79/99/43 82/100/43 80/100/43
f 81/99/44 84/100/44 82/100/44
f 83/99/43 86/100/43 84/100/43
f 86/100/45 87/99/45 88/100/45
f 87/99/46 90/100/46 88/100/46
f 90/100/44 91/99/44 92/100/44
f 91/99/46 94/100/46 92/100/46
f 59/99/43 60/100/43 62/100/43
f 57/99/43 61/99/43 62/100/43
f 59/99/44 63/99/44 64/100/44
f 63/99/43 65/99/43 66/100/43
f 65/99/45 67/99/45 68/100/45
f 67/99/43 69/99/43 70/100/43
f 69/99/45 71/99/45 72/100/45
f 71/99/46 73/99/46 74/100/46
f 73/99/44 75/99/44 76/100/44
f 75/99/46 77/99/46 78/100/46
f 77/99/45 79/99/45 80/100/45
f 79/99/43 81/99/43 82/100/43
f 81/99/44 83/99/44 84/100/44
f 83/99/43 85/99/43 86/100/43
f 86/100/45 85/99/45 87/99/45
f 87/99/46 89/99/46 90/100/46
f 90/100/44 89/99/44 91/99/44
f 91/99/46 93/99/46 94/100/46
g Janitor_Room_Mesh
v 11.328314 0.074364 2.824439
v 11.328312 4.553715 2.824439
v 29.851347 0.074364 2.824439
v 29.851347 4.553715 2.824439
v 20.589830 0.074364 2.824439
v 20.589830 4.553716 2.824439
v 29.851351 0.074364 12.261271
v 29.851351 4.553715 12.261271
v 25.143097 0.074364 12.261271
v 25.143097 4.553715 12.261271
v 25.143097 0.074364 17.366735
v 25.143097 4.553715 17.366735
v 33.418434 0.074364 17.366734
v 33.418434 4.553715 17.366734
v 33.418430 0.074364 2.686574
v 33.418430 4.553715 2.686574
v 55.477779 0.074364 2.686571
v 55.477779 4.553716 2.686571
vn -0.0000 -0.0000 1.0000
vn -1.0000 -0.0000 -0.0000
vn -0.0000 -0.0000 -1.0000
vn 1.0000 -0.0000 -0.0000
vt 0.000000 0.000000
vt 0.000000 1.000000
s 0
g off
f 97/101/47 100/102/47 99/101/47
f 95/101/47 100/102/47 96/102/47
f 97/101/48 102/102/48 98/102/48
f 101/101/49 104/102/49 102/102/49
f 103/101/48 106/102/48 104/102/48
f 105/101/47 108/102/47 106/102/47
f 107/101/50 110/102/50 108/102/50
f 109/101/47 112/102/47 110/102/47
f 97/101/47 98/102/47 100/102/47
f 95/101/47 99/101/47 100/102/47
f 97/101/48 101/101/48 102/102/48
f 101/101/49 103/101/49 104/102/49
f 103/101/48 105/101/48 106/102/48
f 105/101/47 107/101/47 108/102/47
f 107/101/50 109/101/50 110/102/50
f 109/101/47 111/101/47 112/102/47
g Janitor_Hallway_Mesh
v 11.328312 0.074364 -2.824442
v 11.328312 4.553715 -2.824442
v 29.851347 0.074364 -2.824441
v 29.851347 4.553715 -2.824441
v 20.589830 0.074364 -2.824444
v 20.589830 4.553716 -2.824444
v 55.496506 0.074364 -2.824444
v 55.496506 4.553715 -2.824444
vn -0.0000 -0.0000 -1.0000
vt 0.000000 1.000000
vt 0.000000 0.000000
s 0
g off
f 118/103/51 115/104/51 117/104/51
f 114/103/51 117/104/51 113/104/51
f 116/103/51 119/104/51 115/104/51
f 118/103/51 116/103/51 115/104/51
f 114/103/51 118/103/51 117/104/51
f 116/103/51 120/103/51 119/104/51
g BTM_PLAZA_Mesh
v 11.328314 0.074364 2.824439
v 2.028314 0.074364 18.932510
v 11.328312 4.553715 2.824439
v 2.028314 4.553715 18.932510
v 6.678313 0.074364 10.878474
v 6.678313 4.553715 10.878474
v -11.328314 0.074364 2.824440
v -2.028315 0.074364 18.932510
v -11.328314 4.553715 2.824440
v -2.028315 4.553715 18.932510
v -6.678314 0.074364 10.878475
v -6.678314 4.553715 10.878475
v 11.328312 0.074364 -2.824442
v 2.028311 0.074364 -18.932510
v 11.328312 4.553715 -2.824442
v 2.028311 4.553715 -18.932510
v 6.678312 0.074364 -10.878477
v 6.678312 4.553715 -10.878477
v -11.328314 0.074364 -2.824440
v -2.028316 0.074364 -18.932510
v -11.328314 4.553715 -2.824440
v -2.028316 4.553715 -18.932510
v -6.678315 0.074364 -10.878475
v -6.678315 4.553715 -10.878475
vn -0.8660 -0.0000 -0.5000
vn 0.8660 -0.0000 -0.5000
vn -0.8660 -0.0000 0.5000
vn 0.8660 -0.0000 0.5000
vt 1.000000 0.000000
vt 0.500000 1.000000
vt 0.500000 0.000000
vt 0.000000 1.000000
vt 0.000000 0.000000
vt 1.000000 1.000000
s 0
g off
f 122/105/52 126/106/52 125/107/52
f 125/107/52 123/108/52 121/109/52
f 132/106/53 128/105/53 131/107/53
f 129/108/53 131/107/53 127/109/53
f 138/106/54 134/105/54 137/107/54
f 135/108/54 137/107/54 133/109/54
f 140/105/55 144/106/55 143/107/55
f 139/109/55 144/106/55 141/108/55
f 122/105/52 124/110/52 126/106/52
f 125/107/52 126/106/52 123/108/52
f 132/106/53 130/110/53 128/105/53
f 129/108/53 132/106/53 131/107/53
f 138/106/54 136/110/54 134/105/54
f 135/108/54 138/106/54 137/107/54
f 140/105/55 142/110/55 144/106/55
f 139/109/55 143/107/55 144/106/55
g Btm_Floor_Floor_Mesh
v -74.574249 0.000000 65.555855
v 56.537460 0.000000 65.555855
v -74.574249 0.000000 -65.555855
v 56.537460 0.000000 -65.555855
vn -0.0000 1.0000 -0.0000
vt 1.000000 0.000000
vt 0.000000 1.000000
vt 0.000000 0.000000
vt 1.000000 1.000000
s 0
g off
g Btm_Floor_Floor_Floor
usemtl Floor
f 146/111/56 147/112/56 145/113/56
f 146/111/56 148/114/56 147/112/56
g Outside_Asphelt_Mesh
v 56.584564 0.000000 20.652451
v 86.692169 0.000000 20.652451
v 56.584564 0.000000 -9.455153
v 86.692169 0.000000 -9.455153
vn -0.0000 1.0000 -0.0000
vt 1.000000 0.000000
vt 0.000000 1.000000
vt 0.000000 0.000000
vt 1.000000 1.000000
s 0
g off
g Outside_Asphelt_Material
usemtl Material
f 150/115/57 151/116/57 149/117/57
f 150/115/57 152/118/57 151/116/57
g Shrubbery_Mesh
v 1.480628 0.007223 -5.072347
v 1.714781 0.243053 -5.041560
v 2.894841 0.007223 -6.486560
v 2.925628 0.243053 -6.252407
v 5.053446 0.007223 -1.499528
v 5.024218 0.243053 -1.732123
v 6.467660 0.007223 -2.913741
v 6.235065 0.243053 -2.942970
v 1.480628 0.243053 -5.072347
v 2.894841 0.243053 -6.486560
v 6.467660 0.243053 -2.913741
v 5.053446 0.243053 -1.499528
v 1.714781 0.850377 -5.041560
v 2.925628 0.850377 -6.252407
v 6.235065 0.850377 -2.942970
v 5.024218 0.850377 -1.732123
v -1.480627 0.007223 -5.072347
v -1.714781 0.243053 -5.041560
v -2.894841 0.007223 -6.486560
v -2.925628 0.243053 -6.252407
v -5.053446 0.007223 -1.499528
v -5.024218 0.243053 -1.732123
v -6.467660 0.007223 -2.913742
v -6.235065 0.243053 -2.942970
v -1.480627 0.243053 -5.072347
v -2.894841 0.243053 -6.486560
v -6.467660 0.243053 -2.913742
v -5.053446 0.243053 -1.499528
v -1.714781 0.850377 -5.041560
v -2.925628 0.850377 -6.252407
v -6.235065 0.850377 -2.942970
v -5.024218 0.850377 -1.732123
v 1.480627 0.007223 5.072347
v 1.714781 0.243053 5.041560
v 2.894841 0.007223 6.486561
v 2.925628 0.243053 6.252407
v 5.053446 0.007223 1.499528
v 5.024218 0.243053 1.732123
v 6.467660 0.007223 2.913742
v 6.235065 0.243053 2.942971
v 1.480627 0.243053 5.072347
v 2.894841 0.243053 6.486561
v 6.467660 0.243053 2.913742
v 5.053446 0.243053 1.499528
v 1.714781 0.850377 5.041560
v 2.925628 0.850377 6.252407
v 6.235065 0.850377 2.942971
v 5.024218 0.850377 1.732123
v -1.480628 0.007223 5.072347
v -1.714781 0.243053 5.041560
v -2.894841 0.007223 6.486560
v -2.925628 0.243053 6.252407
v -5.053446 0.007223 1.499529
v -5.024218 0.243053 1.732123
v -6.467659 0.007223 2.913742
v -6.235065 0.243053 2.942971
v -1.480628 0.243053 5.072347
v -2.894841 0.243053 6.486560
v -6.467659 0.243053 2.913742
v -5.053446 0.243053 1.499529
v -1.714781 0.850377 5.041560
v -2.925628 0.850377 6.252407
v -6.235065 0.850377 2.942971
v -5.024218 0.850377 1.732123
vn -0.7071 -0.0000 -0.7071
vn 0.7071 -0.0000 -0.7071
vn 0.7071 -0.0000 0.7071
vn -0.7071 -0.0000 0.7071
vn -0.0000 -1.0000 -0.0000
vn -0.0000 1.0000 -0.0000
vt 0.625000 0.000000
vt 0.375000 0.250000
vt 0.375000 0.000000
vt 0.625000 0.250000
vt 0.375000 0.500000
vt 0.625000 0.500000
vt 0.375000 0.750000
vt 0.625000 0.750000
vt 0.375000 1.000000
vt 0.125000 0.500000
vt 0.125000 0.750000
vt 0.642975 0.517975
vt 0.642975 0.732025
vt 0.857025 0.732025
vt 0.875000 0.500000
vt 0.875000 0.750000
vt 0.857025 0.517975
vt 0.625000 1.000000
s 0
g off
g Shrubbery_Outline
usemtl Outline
f 161/119/58 155/120/58 153/121/58
f 162/122/59 159/123/59 155/120/59
f 163/124/60 157/125/60 159/123/60
f 164/126/61 153/127/61 157/125/61
f 155/128/62 157/125/62 153/129/62
f 154/132/63 162/133/63 161/134/63
f 156/135/63 163/124/63 162/133/63
f 158/131/63 163/124/63 160/130/63
f 154/132/63 164/126/63 158/131/63
f 171/120/59 177/119/59 169/121/59
f 175/123/58 178/122/58 171/120/58
f 173/125/61 179/124/61 175/123/61
f 169/127/60 180/126/60 173/125/60
f 171/128/62 173/125/62 175/123/62
f 177/134/63 172/135/63 170/132/63
f 172/135/63 179/124/63 176/130/63
f 179/124/63 174/131/63 176/130/63
f 180/126/63 170/132/63 174/131/63
f 187/120/61 193/119/61 185/121/61
f 191/123/60 194/122/60 187/120/60
f 189/125/59 195/124/59 191/123/59
f 185/127/58 196/126/58 189/125/58
f 185/129/62 191/123/62 187/128/62
f 186/132/63 194/133/63 188/135/63
f 188/135/63 195/124/63 192/130/63
f 195/124/63 190/131/63 192/130/63
f 196/126/63 186/132/63 190/131/63
f 209/119/60 203/120/60 201/121/60
f 210/122/61 207/123/61 203/120/61
f 211/124/58 205/125/58 207/123/58
f 212/126/59 201/127/59 205/125/59
f 203/128/62 205/125/62 201/129/62
f 202/132/63 210/133/63 209/134/63
f 204/135/63 211/124/63 210/133/63
f 206/131/63 211/124/63 208/130/63
f 202/132/63 212/126/63 206/131/63
f 161/119/58 162/122/58 155/120/58
f 162/122/59 163/124/59 159/123/59
f 163/124/60 164/126/60 157/125/60
f 164/126/61 161/136/61 153/127/61
f 155/128/62 159/123/62 157/125/62
f 154/132/63 156/135/63 162/133/63
f 156/135/63 160/130/63 163/124/63
f 158/131/63 164/126/63 163/124/63
f 154/132/63 161/134/63 164/126/63
f 171/120/59 178/122/59 177/119/59
f 175/123/58 179/124/58 178/122/58
f 173/125/61 180/126/61 179/124/61
f 169/127/60 177/136/60 180/126/60
f 171/128/62 169/129/62 173/125/62
f 177/134/63 178/133/63 172/135/63
f 172/135/63 178/133/63 179/124/63
f 179/124/63 180/126/63 174/131/63
f 180/126/63 177/134/63 170/132/63
f 187/120/61 194/122/61 193/119/61
f 191/123/60 195/124/60 194/122/60
f 189/125/59 196/126/59 195/124/59
f 185/127/58 193/136/58 196/126/58
f 185/129/62 189/125/62 191/123/62
f 186/132/63 193/134/63 194/133/63
f 188/135/63 194/133/63 195/124/63
f 195/124/63 196/126/63 190/131/63
f 196/126/63 193/134/63 186/132/63
f 209/119/60 210/122/60 203/120/60
f 210/122/61 211/124/61 207/123/61
f 211/124/58 212/126/58 205/125/58
f 212/126/59 209/136/59 201/127/59
f 203/128/62 207/123/62 205/125/62
f 202/132/63 204/135/63 210/133/63
f 204/135/63 208/130/63 211/124/63
f 206/131/63 212/126/63 211/124/63
f 202/132/63 209/134/63 212/126/63
g Shrubbery_Shrubbery.001
usemtl Shrubbery.001
f 160/130/60 168/131/60 158/131/60
f 166/135/63 168/131/63 167/130/63
f 154/132/58 166/135/58 156/135/58
f 158/131/61 165/132/61 154/132/61
f 156/135/59 167/130/59 160/130/59
f 184/131/61 176/130/61 174/131/61
f 184/131/63 182/135/63 183/130/63
f 182/135/59 170/132/59 172/135/59
f 181/132/60 174/131/60 170/132/60
f 183/130/58 172/135/58 176/130/58
f 200/131/59 192/130/59 190/131/59
f 200/131/63 198/135/63 199/130/63
f 198/135/61 186/132/61 188/135/61
f 197/132/58 190/131/58 186/132/58
f 199/130/60 188/135/60 192/130/60
f 208/130/58 216/131/58 206/131/58
f 215/130/63 213/132/63 216/131/63
f 202/132/60 214/135/60 204/135/60
f 206/131/59 213/132/59 202/132/59
f 204/135/61 215/130/61 208/130/61
f 160/130/60 167/130/60 168/131/60
f 166/135/63 165/132/63 168/131/63
f 154/132/58 165/132/58 166/135/58
f 158/131/61 168/131/61 165/132/61
f 156/135/59 166/135/59 167/130/59
f 184/131/61 183/130/61 176/130/61
f 184/131/63 181/132/63 182/135/63
f 182/135/59 181/132/59 170/132/59
f 181/132/60 184/131/60 174/131/60
f 183/130/58 182/135/58 172/135/58
f 200/131/59 199/130/59 192/130/59
f 200/131/63 197/132/63 198/135/63
f 198/135/61 197/132/61 186/132/61
f 197/132/58 200/131/58 190/131/58
f 199/130/60 198/135/60 188/135/60
f 208/130/58 215/130/58 216/131/58
f 215/130/63 214/135/63 213/132/63
f 202/132/60 213/132/60 214/135/60
f 206/131/59 216/131/59 213/132/59
f 204/135/61 214/135/61 215/130/61
